{
  "title": "Brazzers Brazzers Exxtra July 27 2016 Kalina Ryu.mp4",
  "uid": 15416377,
  "size": 293626167,
  "categoryP": "porn",
  "categoryS": "movies",
  "magnet": "?xt=urn:btih:3c4c1d37bfe4f3af946d6efc19295e96d9c63236&amp;dn=Brazzers+Brazzers+Exxtra+July+27+2016+Kalina+Ryu.mp4&amp;tr=udp%3A%2F%2Ftracker.leechers-paradise.org%3A6969&amp;tr=udp%3A%2F%2Fzer0day.ch%3A1337&amp;tr=udp%3A%2F%2Fopen.demonii.com%3A1337&amp;tr=udp%3A%2F%2Ftracker.coppersurfer.tk%3A6969&amp;tr=udp%3A%2F%2Fexodus.desync.com%3A6969",
  "seeders": 36,
  "leechers": 3,
  "uploader": "PornyXXX",
  "files": 1,
  "time": 1469589219,
  "description": "Brazzers Brazzers Exxtra July 27 2016 Kalina Ryu.mp4\r\n\r\nNFO:\r\n\r\nFormat                                   : MPEG-4\r\nFormat profile                           : Base Media\r\nCodec ID                                 : isom (isom/iso2/avc1/mp41)\r\nFile size                                : 280 MiB\r\nDuration                                 : 34mn 44s\r\nOverall bit rate                         : 1 127 Kbps\r\nWriting application                      : Lavf57.28.100\r\n\r\nVideo\r\nID                                       : 1\r\nFormat                                   : AVC\r\nFormat/Info                              : Advanced Video Codec\r\nFormat profile                           :   \r\nFormat settings, CABAC                   : Yes\r\nFormat settings, ReFrames                : 5 frames\r\nCodec ID                                 : avc1\r\nCodec ID/Info                            : Advanced Video Coding\r\nDuration                                 : 34mn 44s\r\nBit rate                                 : 1 000 Kbps\r\nWidth                                    : 854 pixels\r\nHeight                                   : 480 pixels\r\nDisplay aspect ratio                     : 16:9\r\nOriginal display aspect ratio            : 16:9\r\nFrame rate mode                          : Constant\r\nFrame rate                               : 23.976 (23976/1000) fps\r\nColor space                              : YUV\r\nChroma subsampling                       : 4:2:0\r\nBit depth                                : 8 bits\r\nScan type                                : Progressive\r\nBits/(Pixel*Frame)                       : 0.102\r\nStream size                              : 247 MiB (88%)\r\nWriting library                          : x264 core 148 r2665 a01e339\r\nEncoding settings                        : cabac=1 / ref=5 / deblock=1:0:0 / analyse=0x3:0x113 / me=umh / subme=8 / psy=1 / psy_rd=1.00:0.00 / mixed_ref=1 / me_range=16 / chroma_me=1 / trellis=1 / 8x8dct=1 / cqm=0 / deadzone=21,11 / fast_pskip=1 / chroma_qp_offset=-2 / threads=18 / lookahead_threads=3 / sliced_threads=0 / nr=0 / decimate=1 / interlaced=0 / bluray_compat=0 / constrained_intra=0 / bframes=3 / b_pyramid=2 / b_adapt=2 / b_bias=0 / direct=3 / weightb=1 / open_gop=0 / weightp=2 / keyint=60 / keyint_min=6 / scenecut=40 / intra_refresh=0 / rc_lookahead=50 / rc=abr / mbtree=1 / bitrate=1000 / ratetol=1.0 / qcomp=0.60 / qpmin=0 / qpmax=69 / qpstep=4 / ip_ratio=1.40 / aq=1:1.00\r\nLanguage                                 : English\r\nTagged date                              : UTC 2016-07-20 13:03:23\r\n\r\nAudio\r\nID                                       : 2\r\nFormat                                   : AAC\r\nFormat/Info                              : Advanced Audio Codec\r\nFormat profile                           : LC\r\nCodec ID                                 : 40\r\nDuration                                 : 34mn 44s\r\nDuration_LastFrame                       : 21ms\r\nBit rate mode                            : Constant\r\nBit rate                                 : 128 Kbps\r\nChannel(s)                               : 2 channels\r\nChannel positions                        : Front: L R\r\nSampling rate                            : 48.0 KHz\r\nFrame rate                               : 46.875 fps (1024 spf)\r\nCompression mode                         : Lossy\r\nStream size                              : 31.8 MiB (11%)\r\nLanguage                                 : English\r\nDefault                                  : Yes\r\nAlternate group                          : 1\r\nTagged date                              : UTC 2016-07-20 13:03:23",
  "parsed": {
    "xt": "urn:btih:3c4c1d37bfe4f3af946d6efc19295e96d9c63236",
    "dn": "Brazzers Brazzers Exxtra July 27 2016 Kalina Ryu.mp4",
    "tr": [
      "udp://exodus.desync.com:6969",
      "udp://open.demonii.com:1337",
      "udp://tracker.coppersurfer.tk:6969",
      "udp://tracker.leechers-paradise.org:6969",
      "udp://zer0day.ch:1337"
    ],
    "infoHash": "3c4c1d37bfe4f3af946d6efc19295e96d9c63236",
    "infoHashBuffer": {
      "type": "Buffer",
      "data": [
        60,
        76,
        29,
        55,
        191,
        228,
        243,
        175,
        148,
        109,
        110,
        252,
        25,
        41,
        94,
        150,
        217,
        198,
        50,
        54
      ]
    },
    "name": "Brazzers Brazzers Exxtra July 27 2016 Kalina Ryu.mp4",
    "announce": [
      "udp://exodus.desync.com:6969",
      "udp://open.demonii.com:1337",
      "udp://tracker.coppersurfer.tk:6969",
      "udp://tracker.leechers-paradise.org:6969",
      "udp://zer0day.ch:1337"
    ],
    "urlList": []
  },
  "previous": 39,
  "peers": 24,
  "last_updated": "2016-12-24T22:43:29.719Z"
}